<svg width="30" height="30" viewBox="0 0 30 30" fill="none" xmlns="http://www.w3.org/2000/svg">
<path d="M14 28C12.2708 28 11.5208 27.6562 10 27C8.47917 26.3438 7.125 25.125 6 24C4.875 22.875 3.65625 21.5208 3 20C2.34375 18.4792 2 16.7292 2 15C2 13.2708 2.34375 12.5208 3 11C3.65625 9.47917 4.875 8.125 6 7C7.125 5.875 8.47917 4.65625 10 4C11.5208 3.34375 12.2708 3 14 3C15.7292 3 17.4792 3.34375 19 4C20.5208 4.65625 21.875 5.875 23 7C24.125 8.125 25.3438 9.47917 26 11C26.6562 12.5208 27 13.2708 27 15V17C27 18.2292 26.8438 19.1354 26 20C25.1562 20.8646 24.2292 22 23 22C22.2708 22 21.6458 21.3125 21 21C20.3542 20.6875 19.4375 20.5833 19 20C18.3958 20.6042 17.7604 20.6979 17 21C16.2396 21.3021 14.8333 22 14 22C12.2708 22 11.2188 21.2188 10 20C8.78125 18.7812 8 16.7292 8 15C8 13.2708 8.78125 12.2188 10 11C11.2188 9.78125 12.2708 9 14 9C15.7292 9 17.7812 9.78125 19 11C20.2188 12.2188 21 13.2708 21 15V17C21 17.5417 20.6458 18.625 21 19C21.3542 19.375 22.4583 19 23 19C23.5417 19 23.6458 19.375 24 19C24.3542 18.625 24 17.5417 24 17V15C24 12.2083 23.9375 9.9375 22 8C20.0625 6.0625 16.7917 5 14 5C11.2083 5 8.9375 6.0625 7 8C5.0625 9.9375 4 12.2083 4 15C4 17.7917 5.0625 21.0625 7 23C8.9375 24.9375 11.2083 25 14 25H21V28H14ZM14 19C15.0417 19 16.2708 18.7292 17 18C17.7292 17.2708 18 16.0417 18 15C18 13.9583 17.7292 13.7292 17 13C16.2708 12.2708 15.0417 12 14 12C12.9583 12 12.7292 12.2708 12 13C11.2708 13.7292 11 13.9583 11 15C11 16.0417 11.2708 17.2708 12 18C12.7292 18.7292 12.9583 19 14 19Z" fill="#828282"/>
</svg>
