<svg width="30" height="30" viewBox="0 0 30 30" fill="none" xmlns="http://www.w3.org/2000/svg">
<path d="M25 26C22.4537 26 19.4852 25.1102 17 24C14.5148 22.8898 12.037 22.037 10 20C7.96296 17.963 7.11018 15.4852 6 13C4.88981 10.5148 4 7.5463 4 5C4 4.63333 3.75555 4.24444 4 4C4.24444 3.75555 4.63333 4 5 4H10C10.2852 4 10.7759 3.80648 11 4C11.2241 4.19352 10.9593 4.73518 11 5L12 9C12.0407 9.32593 12.0611 9.77593 12 10C11.9389 10.2241 12.163 10.837 12 11L9 14C9.40741 14.7537 9.43981 15.2972 10 16C10.5602 16.7028 11.3278 17.3481 12 18C12.6315 18.6315 13.3074 19.4602 14 20C14.6926 20.5398 15.2259 20.5519 16 21L19 18C19.1833 17.8167 19.7046 18.0917 20 18C20.2954 17.9083 20.7148 17.9593 21 18L25 19C25.2852 19.0815 25.8167 18.7861 26 19C26.1833 19.2139 26 19.7352 26 20V25C26 25.3667 26.2444 25.7556 26 26C25.7556 26.2444 25.3667 26 25 26ZM8 11L10 9L9 6H6C6.10185 6.83518 6.81667 8.18518 7 9C7.18333 9.81481 7.6537 10.2056 8 11ZM19 22C19.7944 22.3463 20.175 22.7963 21 23C21.825 23.2037 23.1648 22.9389 24 23V21L21 20L19 22Z" fill="#828282"/>
</svg>
