<svg width="162" height="29" viewBox="0 0 162 29" fill="none" xmlns="http://www.w3.org/2000/svg">
<path d="M14.522 23.93C16.862 23.93 18.968 22.994 20.528 21.395C20.684 21.317 20.918 21.317 21.074 21.395L24.194 24.593C24.35 24.71 24.35 24.905 24.194 25.022C21.776 27.479 18.344 29 14.522 29C6.917 29 0.794 22.877 0.794 15.35C0.794 7.823 6.917 1.7 14.522 1.7C18.344 1.7 21.776 3.221 24.194 5.717C24.35 5.834 24.35 6.029 24.194 6.146L21.074 9.305C20.918 9.383 20.684 9.383 20.528 9.305C18.968 7.706 16.862 6.77 14.522 6.77C9.842 6.77 6.02 10.592 6.02 15.35C6.02 20.108 9.842 23.93 14.522 23.93ZM18.227 15.35C18.227 13.205 16.55 11.528 14.483 11.528C12.416 11.528 10.739 13.205 10.739 15.35C10.739 17.456 12.416 19.172 14.483 19.172C16.55 19.172 18.227 17.456 18.227 15.35ZM73.5159 1.7H77.9619C78.1959 1.7 78.3519 1.856 78.3519 2.012V28.688C78.3519 28.844 78.1959 29 77.9619 29H73.5159C73.2819 29 73.1259 28.844 73.1259 28.688V22.331H62.7909V28.688C62.7909 28.844 62.6349 29 62.4009 29H57.9549C57.7209 29 57.5649 28.844 57.5649 28.688V2.012C57.5649 1.856 57.7209 1.7 57.9549 1.7H62.4009C62.6349 1.7 62.7909 1.856 62.7909 2.012V8.369H73.1259V2.012C73.1259 1.856 73.2819 1.7 73.5159 1.7ZM62.7909 17.261H73.1259V13.439H62.7909V17.261Z" fill="#309BBF"/>
<path d="M28.6994 28.688V2.012C28.6994 1.856 28.8164 1.7 29.0504 1.7H33.5354C33.7304 1.7 33.8864 1.856 33.8864 2.012V20.264C37.8644 14.531 42.4664 7.55 46.4054 1.817C46.4444 1.739 46.6394 1.7 46.7174 1.7H51.2414C51.4754 1.7 51.6314 1.856 51.6314 2.012V28.688C51.6314 28.844 51.4754 29 51.2414 29H46.7564C46.5224 29 46.3664 28.844 46.3664 28.688V10.085L33.8864 28.844C33.8474 28.922 33.6914 29 33.6134 29H29.0504C28.8164 29 28.6994 28.844 28.6994 28.688ZM102.168 6.653H89.2978V12.971H99.9448C100.179 12.971 100.296 13.127 100.296 13.283V17.534C100.296 17.69 100.179 17.846 99.9448 17.846H89.2978V24.086H102.168C102.402 24.086 102.558 24.242 102.558 24.398V28.688C102.558 28.844 102.402 29 102.168 29H84.5008C84.3058 29 84.1498 28.844 84.1498 28.688V2.012C84.1498 1.856 84.3058 1.7 84.5008 1.7H102.168C102.402 1.7 102.558 1.856 102.558 2.012V6.341C102.558 6.497 102.402 6.653 102.168 6.653ZM136.562 2.012V28.688C136.562 28.844 136.406 29 136.172 29H131.765C131.531 29 131.375 28.844 131.375 28.688V13.322L124.511 27.752C124.472 27.83 124.277 27.947 124.16 27.947H119.987C119.87 27.947 119.714 27.83 119.675 27.752L112.304 13.01V28.688C112.304 28.844 112.148 29 111.914 29H107.507C107.273 29 107.117 28.844 107.117 28.688V2.012C107.117 1.856 107.273 1.7 107.507 1.7H111.992C112.109 1.7 112.304 1.817 112.343 1.895L122.054 21.98L131.336 1.895C131.375 1.817 131.57 1.7 131.687 1.7H136.172C136.406 1.7 136.562 1.856 136.562 2.012ZM156.296 28.805L155.165 25.919H146.312L145.259 28.805C145.22 28.922 145.064 29 144.908 29H140.111C139.799 29 139.643 28.805 139.76 28.571L150.407 1.115C150.524 0.841998 150.992 0.841998 151.109 1.115L161.756 28.571C161.873 28.805 161.717 29 161.444 29H156.608C156.491 29 156.335 28.922 156.296 28.805ZM150.758 13.127L147.989 21.317H153.488L150.758 13.127Z" fill="white"/>
</svg>
