<svg width="243" height="52" viewBox="0 0 243 52" fill="none" xmlns="http://www.w3.org/2000/svg">
<path d="M23.084 36.46C26.564 36.46 29.696 35.068 32.016 32.69C32.248 32.574 32.596 32.574 32.828 32.69L37.468 37.446C37.7 37.62 37.7 37.91 37.468 38.084C33.872 41.738 28.768 44 23.084 44C11.774 44 2.668 34.894 2.668 23.7C2.668 12.506 11.774 3.4 23.084 3.4C28.768 3.4 33.872 5.662 37.468 9.374C37.7 9.548 37.7 9.838 37.468 10.012L32.828 14.71C32.596 14.826 32.248 14.826 32.016 14.71C29.696 12.332 26.564 10.94 23.084 10.94C16.124 10.94 10.44 16.624 10.44 23.7C10.44 30.776 16.124 36.46 23.084 36.46ZM28.594 23.7C28.594 20.51 26.1 18.016 23.026 18.016C19.952 18.016 17.458 20.51 17.458 23.7C17.458 26.832 19.952 29.384 23.026 29.384C26.1 29.384 28.594 26.832 28.594 23.7ZM110.819 3.4H117.431C117.779 3.4 118.011 3.632 118.011 3.864V43.536C118.011 43.768 117.779 44 117.431 44H110.819C110.471 44 110.239 43.768 110.239 43.536V34.082H94.8685V43.536C94.8685 43.768 94.6365 44 94.2885 44H87.6765C87.3285 44 87.0965 43.768 87.0965 43.536V3.864C87.0965 3.632 87.3285 3.4 87.6765 3.4H94.2885C94.6365 3.4 94.8685 3.632 94.8685 3.864V13.318H110.239V3.864C110.239 3.632 110.471 3.4 110.819 3.4ZM94.8685 26.542H110.239V20.858H94.8685V26.542Z" fill="#309BBF"/>
<path d="M44.1684 43.536V3.864C44.1684 3.632 44.3424 3.4 44.6904 3.4H51.3604C51.6504 3.4 51.8824 3.632 51.8824 3.864V31.008C57.7984 22.482 64.6424 12.1 70.5004 3.574C70.5584 3.458 70.8484 3.4 70.9644 3.4H77.6924C78.0404 3.4 78.2724 3.632 78.2724 3.864V43.536C78.2724 43.768 78.0404 44 77.6924 44H71.0224C70.6744 44 70.4424 43.768 70.4424 43.536V15.87L51.8824 43.768C51.8244 43.884 51.5924 44 51.4764 44H44.6904C44.3424 44 44.1684 43.768 44.1684 43.536ZM153.429 10.766H134.289V20.162H150.123C150.471 20.162 150.645 20.394 150.645 20.626V26.948C150.645 27.18 150.471 27.412 150.123 27.412H134.289V36.692H153.429C153.777 36.692 154.009 36.924 154.009 37.156V43.536C154.009 43.768 153.777 44 153.429 44H127.155C126.865 44 126.633 43.768 126.633 43.536V3.864C126.633 3.632 126.865 3.4 127.155 3.4H153.429C153.777 3.4 154.009 3.632 154.009 3.864V10.302C154.009 10.534 153.777 10.766 153.429 10.766ZM204.579 3.864V43.536C204.579 43.768 204.347 44 203.999 44H197.445C197.097 44 196.865 43.768 196.865 43.536V20.684L186.657 42.144C186.599 42.26 186.309 42.434 186.135 42.434H179.929C179.755 42.434 179.523 42.26 179.465 42.144L168.503 20.22V43.536C168.503 43.768 168.271 44 167.923 44H161.369C161.021 44 160.789 43.768 160.789 43.536V3.864C160.789 3.632 161.021 3.4 161.369 3.4H168.039C168.213 3.4 168.503 3.574 168.561 3.69L183.003 33.56L196.807 3.69C196.865 3.574 197.155 3.4 197.329 3.4H203.999C204.347 3.4 204.579 3.632 204.579 3.864ZM233.928 43.71L232.246 39.418H219.08L217.514 43.71C217.456 43.884 217.224 44 216.992 44H209.858C209.394 44 209.162 43.71 209.336 43.362L225.17 2.53C225.344 2.124 226.04 2.124 226.214 2.53L242.048 43.362C242.222 43.71 241.99 44 241.584 44H234.392C234.218 44 233.986 43.884 233.928 43.71ZM225.692 20.394L221.574 32.574H229.752L225.692 20.394Z" fill="white"/>
</svg>
