<svg width="503" height="89" viewBox="0 0 503 89" fill="none" xmlns="http://www.w3.org/2000/svg">
<path fill-rule="evenodd" clip-rule="evenodd" d="M502 0H0V89H502V87.801C502.16 87.5612 502.18 87.2411 502.006 86.8934L502 86.8782V0ZM502 86.8782L468.839 1.30327C468.475 0.45223 467.017 0.45223 466.652 1.30327L433.486 86.8934C433.121 87.6229 433.607 88.2308 434.579 88.2308H449.522C450.008 88.2308 450.494 87.9876 450.616 87.6229L453.896 78.6262H481.474L484.997 87.6229C485.119 87.9876 485.605 88.2308 485.969 88.2308H501.034C501.479 88.2308 501.824 88.0643 502 87.801V86.8782ZM87.5173 4.09954C87.5173 3.61323 87.8818 3.12692 88.6108 3.12692H102.582C103.19 3.12692 103.675 3.61323 103.675 4.09954V60.9975C110.486 51.1753 117.884 40.178 125.203 29.2973L125.203 29.297C131.201 20.3799 137.147 11.5412 142.674 3.49165C142.795 3.2485 143.403 3.12692 143.646 3.12692H157.738C158.467 3.12692 158.953 3.61323 158.953 4.09954V87.2581C158.953 87.7445 158.467 88.2308 157.738 88.2308H143.767C143.038 88.2308 142.552 87.7445 142.552 87.2581V29.266L103.675 87.7445C103.554 87.9876 103.068 88.2308 102.825 88.2308H88.6108C87.8818 88.2308 87.5173 87.7445 87.5173 87.2581V4.09954ZM316.38 18.5672H276.288V38.2627H309.455C310.184 38.2627 310.549 38.749 310.549 39.2353V52.4871C310.549 52.9735 310.184 53.4598 309.455 53.4598H276.288V72.9121H316.38C317.109 72.9121 317.595 73.3984 317.595 73.8847V87.2581C317.595 87.7445 317.109 88.2308 316.38 88.2308H261.345C260.738 88.2308 260.252 87.7445 260.252 87.2581V4.09954C260.252 3.61323 260.738 3.12692 261.345 3.12692H316.38C317.109 3.12692 317.595 3.61323 317.595 4.09954V17.5946C317.595 18.0809 317.109 18.5672 316.38 18.5672ZM423.521 87.2581C423.521 87.7445 423.035 88.2308 422.307 88.2308H408.578C407.849 88.2308 407.363 87.7445 407.363 87.2581V39.3568L385.981 84.3403C385.86 84.5835 385.252 84.9482 384.888 84.9482H371.888C371.524 84.9482 371.038 84.5835 370.916 84.3403L347.955 38.3842V87.2581C347.955 87.7445 347.469 88.2308 346.74 88.2308H333.012C332.283 88.2308 331.797 87.7445 331.797 87.2581V4.09954C331.797 3.61323 332.283 3.12692 333.012 3.12692H346.983C347.347 3.12692 347.955 3.49165 348.076 3.73481L378.327 66.3469L407.242 3.73481C407.363 3.49165 407.971 3.12692 408.335 3.12692H422.307C423.035 3.12692 423.521 3.61323 423.521 4.09954V87.2581ZM467.746 38.749L459.12 64.2801H476.25L467.746 38.749ZM43.3529 72.4258C50.6423 72.4258 57.2027 69.5079 62.0623 64.5233C62.5483 64.2801 63.2772 64.2801 63.7632 64.5233L73.4824 74.4926C73.9683 74.8573 73.9683 75.4652 73.4824 75.8299C65.95 83.4893 55.2589 88.2308 43.3529 88.2308C19.6624 88.2308 0.588531 69.1432 0.588531 45.6789C0.588531 22.2145 19.6624 3.12692 43.3529 3.12692C55.2589 3.12692 65.95 7.86842 73.4824 15.6493C73.9683 16.0141 73.9683 16.622 73.4824 16.9867L63.7632 26.8344C63.2772 27.0776 62.5483 27.0776 62.0623 26.8344C57.2027 21.8498 50.6423 18.9319 43.3529 18.9319C28.7741 18.9319 16.8682 30.8465 16.8682 45.6789C16.8682 60.5112 28.7741 72.4258 43.3529 72.4258ZM54.8944 45.6789C54.8944 38.9921 49.6704 33.7643 43.2314 33.7643C36.7925 33.7643 31.5684 38.9921 31.5684 45.6789C31.5684 52.244 36.7925 57.5934 43.2314 57.5934C49.6704 57.5934 54.8944 52.244 54.8944 45.6789ZM227.127 3.12692H240.977C241.706 3.12692 242.192 3.61323 242.192 4.09954V87.2582C242.192 87.7445 241.706 88.2308 240.977 88.2308H227.127C226.398 88.2308 225.912 87.7445 225.912 87.2582V67.4411H193.716V87.2582C193.716 87.7445 193.23 88.2308 192.501 88.2308H178.652C177.923 88.2308 177.437 87.7445 177.437 87.2582V4.09954C177.437 3.61323 177.923 3.12692 178.652 3.12692H192.501C193.23 3.12692 193.716 3.61323 193.716 4.09954V23.9166H225.912V4.09954C225.912 3.61323 226.398 3.12692 227.127 3.12692ZM193.716 51.6361H225.912V39.7216H193.716V51.6361Z" fill="black"/>
</svg>
